HIERARCHY
ROOT Hips
{
    OFFSET 0.000000 0.000000 0.000000
    CHANNELS 6 Xposition Yposition Zposition Zrotation Xrotation Yrotation
        JOINT Chest
        {
            OFFSET -0.000000 31.804140 -0.000000
            CHANNELS 3 Zrotation Xrotation Yrotation
            JOINT Neck
            {
                OFFSET -0.000000 23.903318 0.000000
                CHANNELS 3 Zrotation Xrotation Yrotation
                JOINT Head
                {
                    OFFSET -0.000000 10.511110 0.000000
                    CHANNELS 3 Zrotation Xrotation Yrotation
                    End Site
                    {
                        OFFSET -0.000000 16.244448 0.000000
                    }
                }
            }
            JOINT LeftCollar
            {
                OFFSET -0.000000 23.903318 0.000000
                CHANNELS 3 Zrotation Xrotation Yrotation
                JOINT LeftShoulder
                {
                    OFFSET 20.500000 -0.000000 0.000000
                    CHANNELS 3 Zrotation Xrotation Yrotation
                    JOINT LeftElbow
                    {
                        OFFSET 20.922438 0.000000 0.000000
                        CHANNELS 3 Zrotation Xrotation Yrotation
                        JOINT LeftWrist
                        {
                            OFFSET 26.373112 0.000000 0.000000
                            CHANNELS 3 Zrotation Xrotation Yrotation
                            End Site
                            {
                                OFFSET 0.000000 -14.333333 0.000000
                            }
                        }
                    }
                }
            }
            JOINT RightCollar
            {
                OFFSET -0.000000 23.903318 0.000000
                CHANNELS 3 Zrotation Xrotation Yrotation
                JOINT RightShoulder
                {
                    OFFSET -20.500000 0.000000 0.000000
                    CHANNELS 3 Zrotation Xrotation Yrotation
                    JOINT RightElbow
                    {
                        OFFSET -20.922438 0.000000 0.000000
                        CHANNELS 3 Zrotation Xrotation Yrotation
                        JOINT RightWrist
                        {
                            OFFSET -26.373112 0.000000 0.000000
                            CHANNELS 3 Zrotation Xrotation Yrotation
                            End Site
                            {
                                OFFSET -0.000000 -14.333333 0.000000
                            }
                        }
                    }
                }
            }
        }
    JOINT LeftHip
    {
        OFFSET 11.466667 0.000000 0.000000
        CHANNELS 3 Zrotation Xrotation Yrotation
        JOINT LeftKnee
        {
            OFFSET -0.000000 -37.458855 0.000000
            CHANNELS 3 Zrotation Xrotation Yrotation
            JOINT LeftAnkle
            {
                OFFSET -0.000000 -39.235966 0.000000
                CHANNELS 3 Zrotation Xrotation Yrotation
                End Site
                {
                    OFFSET -0.000000 -4.777778 16.244448
                }
            }
        }
    }
    JOINT RightHip
    {
        OFFSET -11.466667 0.000000 0.000000
        CHANNELS 3 Zrotation Xrotation Yrotation
        JOINT RightKnee
        {
            OFFSET -0.000000 -37.458855 0.000000
            CHANNELS 3 Zrotation Xrotation Yrotation
            JOINT RightAnkle
            {
                OFFSET -0.000000 -39.235966 0.000000
                CHANNELS 3 Zrotation Xrotation Yrotation
                End Site
                {
                    OFFSET -0.000000 -4.777778 16.244448
                }
            }
        }
    }
}
MOTION
Frames:    11
Frame Time:    0.010000
57.749069    79.104439    -63.233257    -4.995085    16.313929    -13.111694    -15.189723    30.429424    26.114363    -18.780449    -2.659509    -20.167007    25.422358    -14.254844    -16.498947    -14.154767    0.610526    -5.061556    -50.241409    8.543994    -11.643629    6.275196    -6.160725    -88.882774    139.668930    9.481741    10.649120    10.590368    1.576864    16.384916    21.011131    44.408298    51.514130    -10.723184    -5.441454    51.689056    -101.802879    -13.418360    8.827375    16.367870    -49.685413    -5.121068    -38.216843    54.233524    34.563206    10.221408    -15.525226    6.654393    7.705300    -9.351420    -11.766014    -33.277020    69.761414    1.192631    5.917494    18.922176    5.411365    
57.721130    79.218803    -62.980442    -5.143484    15.934122    -13.387132    -15.062706    30.369236    25.720285    -19.005802    -2.585911    -20.171877    25.685768    -13.743251    -16.590748    -14.006347    0.617449    -4.899776    -50.008621    8.875736    -12.194181    6.224321    -6.060308    -88.702011    138.991257    8.465878    11.087781    10.850003    1.584440    16.233194    21.225130    44.965771    51.040413    -11.025809    -5.510948    51.461864    -104.642456    -14.629227    8.533865    16.292288    -48.892334    -4.939360    -37.489166    54.227661    33.940254    10.357180    -15.502869    6.889416    7.978501    -9.713122    -11.502946    -33.056583    69.376404    1.361241    6.684703    18.222610    4.311562    
57.690037    79.433990    -62.727993    -5.321234    15.588475    -13.676416    -14.846085    30.210947    25.248617    -19.258875    -2.517746    -20.150501    25.950926    -13.217068    -16.660759    -13.896107    0.580145    -4.672352    -49.836586    9.177427    -12.512565    6.166591    -5.997346    -88.669952    138.210373    7.138315    11.284553    11.070824    1.589927    15.972842    21.439587    45.591572    50.613094    -11.191343    -5.519478    51.435925    -107.373260    -15.623446    8.566976    16.186327    -47.974899    -4.713214    -36.283886    54.045982    32.918034    10.376726    -15.359438    7.103567    8.234756    -9.994509    -11.299031    -32.529881    68.909805    1.218084    7.347270    17.581263    3.325453    
57.655895    79.745361    -62.477940    -5.523784    15.276258    -13.972039    -14.543849    29.961330    24.706478    -19.533312    -2.457115    -20.107527    26.218426    -12.700184    -16.708220    -13.822244    0.529916    -4.394350    -49.734249    9.403743    -12.601194    6.067613    -5.840914    -88.729141    137.471802    5.648125    11.269270    11.262007    1.578985    15.622244    21.659811    46.268970    50.203632    -11.294378    -5.529560    51.613964    -109.765549    -16.399031    8.905784    16.059149    -46.949444    -4.488049    -34.744534    53.665756    31.625967    10.298543    -15.102703    7.292798    8.463766    -10.189474    -11.158870    -31.702171    68.367714    0.758292    7.829624    17.021671    2.496696    
57.618755    80.149048    -62.232475    -5.743576    14.998622    -14.275169    -14.170944    29.626078    24.113487    -19.817118    -2.399818    -20.046661    26.492498    -12.214540    -16.731905    -13.778978    0.498658    -4.079397    -49.689270    9.538860    -12.499814    5.881251    -5.592896    -88.881767    136.792450    4.067304    11.026652    11.422606    1.577361    15.205735    21.920218    46.942780    49.782120    -11.299925    -5.504593    51.959526    -111.759354    -16.960691    9.508208    15.922542    -45.825729    -4.310426    -33.014591    53.054077    30.199352    10.141953    -14.737312    7.456503    8.659150    -10.301827    -11.085772    -30.625666    67.757240    0.040603    8.073195    16.556236    1.844000    
57.578552    80.641724    -61.993958    -5.972408    14.757497    -14.592304    -13.749835    29.212044    23.495220    -20.090015    -2.337208    -19.970245    26.774071    -11.779439    -16.731220    -13.760958    0.463082    -3.740267    -49.684872    9.621464    -12.226258    5.636370    -5.320085    -89.141212    136.076050    2.452061    10.555790    11.568770    1.558529    14.749126    22.229103    47.611008    49.322376    -11.251781    -5.521871    52.442532    -113.287193    -17.327652    10.338099    15.789310    -44.608788    -4.211066    -31.210745    52.184113    28.749043    9.924856    -14.264257    7.596453    8.819838    -10.342358    -11.082109    -29.382980    67.085381    -0.836119    8.065097    16.188124    1.353898    
57.535069    81.220238    -61.764641    -6.203306    14.553805    -14.932188    -13.305918    28.728697    22.878023    -20.328854    -2.257375    -19.878489    27.061872    -11.411241    -16.704584    -13.758275    0.434885    -3.386201    -49.705688    9.659132    -11.816273    5.340593    -5.006384    -89.464798    135.322769    0.908216    9.918022    11.710647    1.524457    14.278337    22.617342    48.246449    48.797035    -11.162484    -5.513429    52.999825    -114.336380    -17.528051    11.294865    15.671970    -43.300838    -4.190595    -29.402321    51.046539    27.332838    9.663782    -13.679502    7.718645    8.950106    -10.324932    -11.148145    -28.068216    66.359909    -1.759231    7.837191    15.913161    0.992180    
57.488167    81.881332    -61.546768    -6.430858    14.387374    -15.303743    -12.863596    28.187300    22.285574    -20.511665    -2.147315    -19.770811    27.350939    -11.121251    -16.651701    -13.762873    0.395516    -3.024840    -49.735703    9.688945    -11.295316    5.022297    -4.698049    -89.838989    134.493347    -0.504978    9.155883    11.856686    1.484682    13.813955    23.088696    48.824394    48.203930    -11.016519    -5.477301    53.571125    -115.012894    -17.576023    12.295034    15.579895    -41.904449    -4.215063    -27.604605    49.653633    25.945675    9.371431    -12.974809    7.832310    9.057991    -10.265103    -11.280086    -26.768890    65.589737    -2.627909    7.455798    15.725883    0.716894    
57.437836    82.621269    -61.342506    -6.651480    14.256807    -15.713755    -12.441325    27.600685    21.736916    -20.627234    -1.997929    -19.647247    27.639381    -10.910059    -16.573345    -13.767507    0.347230    -2.660491    -49.765125    9.723322    -10.694941    4.693987    -4.389523    -90.225723    133.600876    -1.726756    8.325736    12.008149    1.463728    13.371896    23.633451    49.313354    47.560410    -10.800705    -5.398044    54.093601    -115.384071    -17.513336    13.277089    15.517922    -40.424435    -4.227661    -25.796551    48.032333    24.536772    9.053731    -12.137573    7.950351    9.153841    -10.178580    -11.467836    -25.552013    64.786453    -3.371944    7.005358    15.621284    0.490436    
57.384319    83.435333    -61.153839    -6.863974    14.159285    -16.164061    -12.049193    26.983368    21.243355    -20.672827    -1.802586    -19.509411    27.924728    -10.770474    -16.474598    -13.766500    0.298684    -2.299573    -49.788509    9.768339    -10.048707    4.367194    -4.089405    -90.599426    132.647110    -2.723702    7.474414    12.173727    1.435066    12.959857    24.228962    49.738247    46.882786    -10.584479    -5.335713    54.521812    -115.475609    -17.377783    14.189639    15.485508    -38.867874    -4.173061    -23.952110    46.211403    23.047857    8.708134    -11.151916    8.086839    9.248889    -10.079092    -11.694265    -24.453608    63.964226    -3.962286    6.566951    15.594185    0.288645    
57.328163    84.317215    -60.982216    -7.069033    14.089996    -16.650690    -11.688740    26.352680    20.807762    -20.658419    -1.565228    -19.361504    28.207438    -10.681585    -16.363016    -13.757041    0.258742    -1.945444    -49.805218    9.824879    -9.387399    4.054265    -3.811407    -90.941826    131.635956    -3.478835    6.655353    12.346278    1.413311    12.581105    24.868744    50.087982    46.193375    -10.346917    -5.243926    54.804127    -115.400551    -17.190113    14.982301    15.476426    -37.244900    -4.012037    -22.058748    44.217003    21.441502    8.324001    -10.002010    8.252524    9.353826    -9.976066    -11.936559    -23.480688    63.138531    -4.405461    6.202364    15.637234    0.104260    
